<?xml version="1.0" encoding="UTF-8" standalone="no"?>
<svg
   enable-background="new 0 0 580 580"
   height="580"
   viewBox="0 0 580 580"
   width="580"
   version="1.1"
   id="svg2"
   sodipodi:docname="icon udara2.svg"
   xml:space="preserve"
   inkscape:version="1.4.2 (f4327f4, 2025-05-13)"
   xmlns:inkscape="http://www.inkscape.org/namespaces/inkscape"
   xmlns:sodipodi="http://sodipodi.sourceforge.net/DTD/sodipodi-0.dtd"
   xmlns:xlink="http://www.w3.org/1999/xlink"
   xmlns="http://www.w3.org/2000/svg"
   xmlns:svg="http://www.w3.org/2000/svg"><defs
     id="defs2"><linearGradient
       id="linearGradient39"
       inkscape:collect="always"><stop
         style="stop-color:#000080;stop-opacity:1"
         offset="0"
         id="stop39" /><stop
         style="stop-color:#00ffff;stop-opacity:1"
         offset="1"
         id="stop40" /></linearGradient><linearGradient
       id="linearGradient37"
       inkscape:collect="always"><stop
         style="stop-color:#00ffff;stop-opacity:1;"
         offset="0"
         id="stop37" /><stop
         style="stop-color:#000080;stop-opacity:1"
         offset="1"
         id="stop38" /></linearGradient><linearGradient
       id="linearGradient34"
       inkscape:collect="always"><stop
         style="stop-color:#2453a4;stop-opacity:1;"
         offset="0"
         id="stop34" /><stop
         style="stop-color:#00ffff;stop-opacity:1"
         offset="1"
         id="stop35" /></linearGradient><inkscape:path-effect
       effect="bspline"
       id="path-effect10"
       is_visible="true"
       lpeversion="1.3"
       weight="33.333333"
       steps="2"
       helper_size="0"
       apply_no_weight="true"
       apply_with_weight="true"
       only_selected="false"
       uniform="false" /><clipPath
       clipPathUnits="userSpaceOnUse"
       id="clipPath19"><circle
         style="fill:#000000;stroke-width:1.03221"
         id="circle19"
         cx="299.64886"
         cy="291.88263"
         r="230.28938" /></clipPath><linearGradient
       inkscape:collect="always"
       xlink:href="#linearGradient34"
       id="linearGradient35"
       x1="1187.1683"
       y1="54.886204"
       x2="1524.6168"
       y2="113.83806"
       gradientUnits="userSpaceOnUse" /><linearGradient
       inkscape:collect="always"
       xlink:href="#linearGradient37"
       id="linearGradient38"
       x1="672.86426"
       y1="357.77673"
       x2="1026.5753"
       y2="493.97586"
       gradientUnits="userSpaceOnUse" /><linearGradient
       inkscape:collect="always"
       xlink:href="#linearGradient39"
       id="linearGradient40"
       x1="2.0328214"
       y1="69.115974"
       x2="640.33905"
       y2="607.8139"
       gradientUnits="userSpaceOnUse" /></defs><sodipodi:namedview
     id="namedview2"
     pagecolor="#ffffff"
     bordercolor="#000000"
     borderopacity="0.25"
     inkscape:showpageshadow="2"
     inkscape:pageopacity="0.0"
     inkscape:pagecheckerboard="0"
     inkscape:deskcolor="#d1d1d1"
     inkscape:zoom="0.49192687"
     inkscape:cx="352.6947"
     inkscape:cy="456.36864"
     inkscape:window-width="1920"
     inkscape:window-height="1046"
     inkscape:window-x="-11"
     inkscape:window-y="-11"
     inkscape:window-maximized="1"
     inkscape:current-layer="svg2" /><path
     id="path26"
     style="fill:url(#linearGradient40);fill-opacity:1;stroke-width:1.30687"
     d="M 285.83398 32.929688 C 260.45501 33.878351 237.57226 42.678663 217.45508 59.240234 C 203.51945 70.712819 188.7246 92.758246 182.96875 110.62891 C 181.77116 114.34718 179.90379 118.12651 178.81836 119.02734 C 177.73292 119.92818 170.76359 121.40404 163.33203 122.30664 C 138.30079 125.34683 122.82739 132.69243 105.63281 149.69727 C 96.777919 158.45446 93.947348 162.34543 88.923828 172.67188 C 81.819938 187.27474 79.052774 198.93929 79.021484 214.41602 C 79.000584 224.77027 81.603039 238.83035 85.318359 248.42969 L 86.642578 251.84766 L 94.255859 248.13086 C 98.443329 246.08712 102.80139 244.40283 103.93945 244.38672 C 107.44816 244.33702 107.61924 243.07841 105.11133 235.78906 C 97.219165 212.85008 103.22616 185.77449 120.29883 167.33398 C 133.38394 153.20051 146.71746 146.91348 167.84375 144.91211 C 182.34221 143.5386 192.15724 139.44203 197.39258 132.57812 C 199.24402 130.15078 202.39672 123.77387 204.39844 118.4082 C 212.43131 96.875853 223.79268 81.816842 240.37695 70.724609 C 261.6852 56.47278 287.75248 51.71439 312.47656 57.564453 C 315.96031 58.388748 324.39622 61.724258 331.22461 64.976562 C 341.79932 70.013215 345.29783 72.560311 354.81445 82.152344 C 366.55527 93.986204 372.50596 103.55715 378.65234 120.49023 L 381.82422 129.22656 L 377.49023 135.32227 C 371.88419 143.20729 366.74339 156.62605 365.4043 166.87109 C 364.13582 176.57597 363.88911 176.40039 378.75977 176.40039 L 389.48828 176.40039 L 391.68945 167.02148 C 393.04709 161.2366 395.67954 154.94749 398.55859 150.61133 L 403.22656 143.58203 L 412.64062 144.39844 C 439.50004 146.73107 460.64226 159.82837 472.02344 181.18164 C 482.72627 201.26223 483.03363 224.5498 472.87109 245.49219 C 468.04401 255.43959 453.14873 270.25445 442.64453 275.55469 C 428.74579 282.56774 422.47843 283.5625 392.23438 283.5625 C 366.73732 283.5625 364.98679 283.71438 365.86719 285.84961 C 368.95151 293.33002 371.73828 302.15354 371.73828 304.43945 C 371.73828 306.99774 372.46759 307.08177 393.62891 306.92773 C 405.66846 306.84003 419.0255 306.25732 423.3125 305.63281 C 442.98451 302.76703 461.0541 293.56648 475.60547 279.00586 C 487.29625 267.30765 493.2234 258.17161 497.96094 244.54883 C 513.31863 200.38782 493.81742 152.48277 452.11133 131.91992 C 439.82773 125.86361 429.99275 123.15948 415.99609 121.99219 C 404.28952 121.01591 402.36041 119.59012 398.55469 109.0957 C 387.51554 78.65491 367.29392 56.386098 338.63867 43.115234 C 324.11753 36.390169 313.55376 33.833364 296.86328 33.003906 C 293.13666 32.818708 289.45955 32.794164 285.83398 32.929688 z M 210.99219 201.23047 C 201.4881 201.23047 185.26359 205.37806 176.59375 210.02344 C 166.93674 215.19775 153.65651 228.94892 148.28516 239.33594 L 143.78711 248.03516 L 148.99805 253.71094 C 158.45088 264.00465 163.92332 275.68075 165.8457 289.6582 L 166.75391 296.25781 L 161.75586 297.08398 C 159.00712 297.53815 153.37711 297.9159 149.24414 297.92383 C 141.78384 297.93803 141.72852 297.91003 141.72852 294.06641 C 141.72852 287.52179 136.42251 275.5785 130.81055 269.49023 C 125.53464 263.76655 125.3969 263.70925 118.89844 264.54492 C 96.255465 267.45672 76.154511 287.666 72.207031 311.48828 C 67.473741 340.05281 87.323307 368.23856 116.53125 374.42773 C 129.12315 377.09596 293.74809 377.04512 306.06641 374.36914 C 328.416 369.51404 345.91254 350.84143 349.73633 327.76562 C 354.86809 296.79649 331.37857 267.34441 298.93945 264.07422 C 287.34588 262.90546 283.80493 261.20658 281.08984 255.51172 C 280.04953 253.3297 277.02411 246.93192 274.36719 241.29297 C 268.68128 229.22537 257.45129 217.03702 246.08594 210.59961 C 237.11767 205.51992 221.0497 201.23047 210.99219 201.23047 z M 414.61133 328.66602 C 413.77525 328.69207 412.93669 328.75898 412.09766 328.86914 C 397.4506 330.79225 386.8135 338.30753 380.20898 351.74805 C 377.79193 356.66682 375.46757 363.72145 378.5625 368.83398 C 382.05996 374.61145 391.19472 375.57057 395.67383 370.41016 C 398.3832 367.28867 398.57264 362.85687 400.53516 359.29883 C 404.86465 351.44942 414.34537 347.29843 422.03125 353.21094 C 432.3314 361.13457 434.00657 381.88182 422.03125 389.31445 C 415.95239 393.08736 407.05624 391.48633 400.17578 391.48633 L 158.90039 391.89453 L 125.91602 391.89453 C 120.14008 391.89453 114.57774 392.36451 111.77148 398.25195 C 108.87605 404.32645 112.71554 411.66321 119.16211 413.14258 C 123.33119 414.09932 128.40238 413.35156 132.67188 413.35156 L 160.0918 413.35156 L 379.11523 412.94531 C 396.66153 412.91271 418.74844 416.65879 434.35156 406.95898 C 453.53009 395.03649 456.43961 365.66497 445.39648 347.37695 C 439.18381 337.08849 427.15248 328.27523 414.61133 328.66602 z M 540.91602 373.48438 C 539.24095 373.40201 537.49549 373.4941 535.68359 373.7793 C 524.33551 375.56553 509.47277 389.02931 514.04492 401.81836 C 516.56139 408.85743 525.80312 410.70592 531.24414 405.92383 C 533.55163 403.8958 533.89073 401.22627 535.2207 398.64062 C 536.25083 396.63797 538.4515 394.24252 540.83398 395.75781 C 545.24684 398.56447 545.48792 409.02827 539.25977 409.72461 C 532.80312 410.44649 525.89008 409.76758 519.39062 409.76758 L 479.25586 409.76758 C 472.10236 409.76758 461.44395 407.75983 457.36523 415.33008 C 453.71828 422.09897 458.19425 430.40037 465.74414 431.1582 C 484.41311 433.03215 504.19419 431.22656 522.9668 431.22656 C 532.72559 431.22656 543.49315 432.58837 552.375 427.68945 C 575.23913 415.07842 566.04205 374.71991 540.91602 373.48438 z M 102.7168 436.52344 C 99.875908 436.45042 97.045204 436.49597 94.402344 436.97266 C 82.501914 439.11912 82.844088 456.40539 94.798828 458.12891 C 100.54709 458.95764 106.87418 458.24805 112.68164 458.24805 L 148.04883 458.24805 L 406.5332 458.24805 L 433.1582 458.24805 C 437.82825 458.24805 443.06743 457.53291 447.46484 459.39062 C 454.31637 462.2851 457.2824 469.53448 457.76172 476.52734 C 458.67066 489.78711 445.97131 507.47016 432.37891 495.81445 C 426.59042 490.85069 427.2876 481.28775 420.83984 477.46289 C 415.88101 474.52122 408.7973 476.1549 405.99805 481.29688 C 403.2075 486.42295 405.38461 492.66148 407.60547 497.58789 C 413.4579 510.57005 425.63747 520.6697 440.3125 521.0293 C 480.90076 522.02382 494.38703 458.9613 458.98828 441.25977 C 449.61654 436.57334 439.78271 436.78906 429.58203 436.78906 L 395.4082 436.78906 L 143.67773 436.78906 L 111.0918 436.78906 C 108.40809 436.78906 105.55769 436.59646 102.7168 436.52344 z M 357.80469 478.76367 C 351.36033 478.70162 344.79989 479.30859 338.97852 479.30859 L 145.38477 479.30859 C 106.87261 479.30859 105.98815 492.81223 118.75977 500.69922 C 128.755 501.69928 139.30887 500.76758 149.35742 500.76758 L 342.55469 500.76758 C 350.07526 500.76758 359.48357 499.23658 366.79492 500.97852 C 369.45985 501.61346 371.39105 503.71514 372.10352 506.33203 C 373.62678 511.92665 365.95684 523.01947 359.64258 520.57812 C 353.11717 518.05513 354.16036 509.91503 349.97461 505.62109 C 346.07249 501.6181 339.93484 505.15664 338.23047 509.50977 C 332.77879 523.43389 351.87505 537.69262 364.41211 536.89453 C 391.18207 535.19044 400.52112 494.53899 375.93555 482.23828 C 370.57766 479.55761 364.24905 478.82572 357.80469 478.76367 z " /><path
     style="fill:url(#linearGradient35);fill-opacity:1;stroke:none"
     d="m 1258.5326,113.52549 c -4.6476,2.43213 -8.878,4.55395 -14.2855,4.07257 -25.6232,-2.28101 -22.2294,-37.205987 1.2855,-40.417477 21.3346,-2.9137 41.7871,18.43756 38.6991,39.344907 -2.5752,17.4353 -20.7431,31.83392 -37.6991,33.83026 -21.7593,2.56189 -40.905,-5.99823 -57,-20.11652 -20.5679,-18.04187 -39.7167,-42.166437 -70,-27.8233 -22.8979,10.84515 -26.5524,41.47504 -8.8264,58.92511 10.0298,9.8736 24.3698,12.18292 37.8264,12.18445 v -1 c -10.53,-6.146 -22.6086,-11.57233 -27.0308,-24 -5.5408,-15.57111 11.4349,-26.72614 25.0308,-22.55707 20.887,6.40479 29.5884,33.12903 46,46.03931 32.0839,25.23898 102.701,12.86853 118,-27.48224 h 2 c 2.5574,11.05408 6.1155,23.47565 16,30.14966 28.6259,19.32809 69.5641,0.17077 67.9607,-35.14966 -1.6056,-35.36798 -61.6275,-42.391477 -62.5039,-4 -0.3671,16.0841 18.7288,27.52203 29.5432,13 -15.393,-0.17163 -17.6212,-20.50983 -2,-20.62653 10.6555,-0.0796 19.4387,12.91504 15.5163,22.62653 -6.3645,15.75781 -26.0378,17.29889 -38.5163,8.36267 -31.713,-22.71069 -11.4407,-65.691647 -35.3256,-94.362667 -16.3223,-19.59296 -44.0156,-28.01221 -68.6744,-22.10108 -22.6462,5.42865 -44.0983,25.09479 -41.8295,50.10108 1.3659,15.054077 7.08,30.210387 20.8295,38.120357 16.7034,9.60937 41.7698,4.42987 45,-17.12036 m -170,-2 h 1 c 10.3902,-16.897337 23.9726,-26.773437 44,-22.999997 -10.3166,-13.96655 -31.9699,-10.55908 -41.1497,3.00079 -4.2029,6.20831 -3.8503,12.845707 -3.8503,19.999207"
     id="path34"
     sodipodi:nodetypes="csssssssccsssccssscsssssssccccsc" /><path
     style="fill:url(#linearGradient38);fill-opacity:1;stroke:none"
     d="m 759.83682,478.86903 h 1 c 0,-40.43023 12.0032,-78.0635 49,-99.98531 43.3493,-25.68585 104.9232,-8.45084 111.7138,46.98532 2.9811,24.33679 -18.8859,51.84159 -43.7138,52.96059 -19.0117,0.857 -42.7557,-16.7711 -38.3302,-37.96059 2.3156,-11.08698 11.161,-20.65027 22.3302,-23.08563 11.098,-2.41983 23.9237,7.87085 24.7747,19.08563 1.4541,19.16409 -29.4478,26.03909 -31.5177,5 -1.5375,-15.62702 15.0882,-14.62378 23.743,-9 -4.6024,-11.7735 -19.4934,-12.29492 -27.787,-3.81177 -7.7929,7.97101 -7.5954,21.0022 -1.4128,29.81106 13.2012,18.8086 40.5136,13.4271 52.0949,-3.9993 11.1767,-16.81756 6.0218,-38.55663 -7.8989,-51.95986 -23.3046,-22.43826 -61.8472,-11.72601 -77.7639,13.95987 -11.8511,19.12475 -10.6105,43.69169 0.08,62.99999 21.7702,39.3188 77.069,43.7607 109.6728,15.8549 28.5863,-24.4672 37.2919,-63.00528 23.9498,-97.85489 -25.5676,-66.78272 -111.8018,-76.67346 -160.9351,-30.91049 -32.4197,30.19577 -38.4378,70.74264 -29,111.91048"
     id="path35"
     sodipodi:nodetypes="ccssssssscssssscsssc" /></svg>
