<?xml version="1.0" encoding="UTF-8" standalone="no"?>
<!-- Created with Inkscape (http://www.inkscape.org/) -->

<svg
   width="210mm"
   height="297mm"
   viewBox="0 0 210 297"
   version="1.1"
   id="svg1"
   xml:space="preserve"
   inkscape:version="1.4.2 (f4327f4, 2025-05-13)"
   sodipodi:docname="icon air warna pas.svg"
   xmlns:inkscape="http://www.inkscape.org/namespaces/inkscape"
   xmlns:sodipodi="http://sodipodi.sourceforge.net/DTD/sodipodi-0.dtd"
   xmlns="http://www.w3.org/2000/svg"
   xmlns:svg="http://www.w3.org/2000/svg"><sodipodi:namedview
     id="namedview1"
     pagecolor="#ffffff"
     bordercolor="#000000"
     borderopacity="0.25"
     inkscape:showpageshadow="2"
     inkscape:pageopacity="0.0"
     inkscape:pagecheckerboard="0"
     inkscape:deskcolor="#d1d1d1"
     inkscape:document-units="mm"
     inkscape:zoom="0.50835204"
     inkscape:cx="608.83005"
     inkscape:cy="559.65154"
     inkscape:window-width="1920"
     inkscape:window-height="1046"
     inkscape:window-x="-11"
     inkscape:window-y="-11"
     inkscape:window-maximized="1"
     inkscape:current-layer="layer1" /><defs
     id="defs1" /><g
     inkscape:label="Layer 1"
     inkscape:groupmode="layer"
     id="layer1"><path
       style="fill:#00a9ff;fill-opacity:0.977925;stroke:none;stroke-width:2.61305"
       d="m 81.445691,40.837404 c -1.883487,0.553577 -1.864255,2.563823 -2.093891,4.171087 -0.583129,4.081363 -1.314758,8.125381 -2.128098,12.166572 -3.250166,16.148728 -8.840064,32.270246 -16.683951,46.773567 -6.995639,12.935 -15.182152,25.02312 -23.633363,37.04038 -11.971055,17.02227 -24.182136,34.34951 -28.3427179,55.15502 -2.1342097,10.67251 -2.3608142,22.3826 0.2774723,32.98483 10.3192096,41.46884 57.4259436,62.59602 96.6630776,50.90462 9.81579,-2.92476 19.10853,-7.8116 27.03678,-14.30072 6.26283,-5.12597 11.69638,-11.29968 15.89683,-18.21891 3.242,-5.34042 5.63348,-11.03494 7.3548,-17.03315 1.65737,-5.77554 2.16293,-11.59422 2.16293,-17.57392 0,-41.0091 -31.30708,-70.09768 -50.44485,-103.55078 C 98.005051,92.739976 92.127558,75.154296 87.69522,56.634305 86.62149,52.147765 86.949819,46.54259 85.186611,42.316495 84.583596,40.871192 82.871497,40.418323 81.445685,40.837404"
       id="path1"
       sodipodi:nodetypes="cscccssssssssssc" /><path
       style="fill:#00a9ff;fill-opacity:0.977925;stroke:none;stroke-width:1.18748"
       d="m 168.69204,39.52599 c -0.85593,0.251576 -0.84721,1.16511 -0.95156,1.895521 -0.26501,1.854744 -0.59749,3.692521 -0.96712,5.529013 -1.47701,7.338679 -4.0173,14.665009 -7.5819,21.255923 -3.1791,5.878247 -6.89943,11.37158 -10.74,16.832755 -5.44016,7.73563 -10.98941,15.609878 -12.88017,25.064798 -0.96986,4.85004 -1.07285,10.17162 0.12614,14.98971 4.68951,18.84524 26.09684,28.44636 43.92786,23.13326 4.46073,-1.32915 8.68376,-3.54991 12.28671,-6.49885 2.84606,-2.32946 5.3153,-5.13504 7.22417,-8.27947 1.47333,-2.42692 2.56014,-5.01475 3.34235,-7.74058 0.75315,-2.62465 0.98291,-5.2689 0.98291,-7.98635 0,-18.636308 -14.22727,-31.855379 -22.9243,-47.057908 -4.31978,-7.551054 -6.99077,-15.542747 -9.00501,-23.959026 -0.48793,-2.038883 -0.33873,-4.586113 -1.14001,-6.506635 -0.27406,-0.656806 -1.05209,-0.862607 -1.70004,-0.672161 m -5.77663,43.710764 c 1.11289,-0.195437 2.32313,0.605229 2.30206,1.802448 -0.0335,1.888488 -1.10179,4.22749 -1.68771,6.020439 -2.07375,6.345883 -3.57237,12.913289 -4.38823,19.535829 -0.37931,3.07889 -0.0397,6.30289 -0.62533,9.33785 -0.55467,2.87444 -2.66855,4.90056 -5.55298,5.35223 -3.49914,0.54782 -7.07075,-1.36271 -8.0566,-4.86077 -0.52361,-1.85794 -0.23178,-4.25642 0.0369,-6.14333 1.34824,-9.46174 6.52648,-16.835778 12.26784,-24.204724 1.26248,-1.620405 2.53375,-3.232453 3.71327,-4.914682 0.53342,-0.760668 0.98473,-1.748464 1.99075,-1.92529 z"
       id="path2" /><path
       style="fill:#f9f9f9;stroke:none"
       d="m 79.327447,118.22795 c -1.4157,0.18595 -2.76368,0.31689 -4.12182,0.81484 -4.04037,1.48136 -7.18885,4.80233 -8.46503,8.90908 -1.00489,3.23379 -0.61412,6.84966 -0.61412,10.19316 v 17.5456 36.2052 11.75277 3.78762 c 0,0.60872 0.0877,1.29212 -0.008,1.89299 -0.072,0.45059 -1.02355,0.82421 -1.38425,1.04842 -1.26241,0.78474 -2.47689,1.73334 -3.56482,2.74501 -3.29261,3.0618 -5.90745,6.78686 -7.46088,11.02367 -4.43587,12.09845 0.13948,26.14706 11.0257,33.15884 2.84977,1.83552 5.9925,3.1313 9.30195,3.85824 3.09126,0.67899 6.33565,0.80987 9.46906,0.39784 3.35714,-0.44144 6.65296,-1.45161 9.63615,-3.06501 2.65457,-1.43569 5.12093,-3.28629 7.180363,-5.49714 7.77316,-8.34472 9.69057,-20.69016 4.94511,-31.02508 -1.6396,-3.57082 -4.13421,-6.79348 -7.112443,-9.34256 -1.02164,-0.87443 -2.10001,-1.66622 -3.23062,-2.39306 -0.32315,-0.20774 -1.09517,-0.49561 -1.16145,-0.90921 -0.10468,-0.65326 -0.008,-1.39811 -0.008,-2.06005 v -4.23323 -13.14527 -40.60553 -11.64136 c 0,-2.46505 0.18503,-5.01699 -0.1273,-7.46384 -0.45857,-3.59256 -2.40752,-6.92328 -5.27563,-9.12175 -1.05868,-0.8115 -2.21614,-1.43828 -3.45342,-1.92914 -1.65252,-0.6556 -3.78501,-1.1355 -5.57003,-0.90105 m 0.38991,3.50139 c 0.86805,-0.1021 1.8875,0.1008 2.72931,0.31126 3.33916,0.83478 6.18868,3.39676 7.25522,6.69108 0.92094,2.84456 0.54282,6.07219 0.54282,9.02345 v 15.81889 39.10162 12.64397 4.06612 c 0,0.64414 -0.0937,1.36864 0.008,2.00436 0.063,0.39298 0.73929,0.61961 1.05005,0.7963 1.05332,0.5989 2.07855,1.21906 3.06352,1.92605 2.91962,2.09563 5.34969,4.92801 7.056743,8.08436 5.54003,10.24353 2.95089,23.37582 -6.165543,30.67975 -1.44927,1.16113 -3.04257,2.22486 -4.73452,3.00175 -2.4732,1.13562 -5.08418,1.94524 -7.79805,2.23596 -2.87867,0.30837 -5.87474,0.18491 -8.68925,-0.55635 -2.82073,-0.7429 -5.50155,-1.89803 -7.90944,-3.55764 -6.55615,-4.51877 -10.83453,-12.35964 -10.63794,-20.3849 0.0838,-3.42102 0.82931,-6.71978 2.19513,-9.85896 1.56781,-3.60341 4.18539,-6.8169 7.2731,-9.22261 1.09056,-0.84969 2.25681,-1.56397 3.45342,-2.25165 0.33684,-0.19358 1.14929,-0.46869 1.21715,-0.89206 0.0935,-0.58309 0.008,-1.24652 0.008,-1.83726 v -3.78762 -11.64136 -36.03811 -19.2166 c 0,-3.37862 -0.49973,-7.18498 0.65125,-10.41596 0.98484,-2.76458 3.27942,-5.05871 6.03279,-6.06837 1.12799,-0.41363 2.22152,-0.51713 3.39772,-0.65547 m 18.214,20.20331 v 3.50912 h 11.418563 c 1.35475,0 3.40485,0.10867 3.33961,-1.83811 -0.0626,-1.8692 -2.08189,-1.67101 -3.39531,-1.67101 H 97.931357 m 0,13.08958 v 4.23322 h 16.542993 c 1.73105,0 4.94115,0.52695 5.00585,-2.06091 0.0659,-2.63719 -3.17394,-2.17231 -4.89445,-2.17231 H 97.931357 m -22.67003,11.69706 v 34.757 10.75016 3.28631 c 0,0.47469 0.10747,1.09812 -0.0177,1.55639 -0.0602,0.22035 -0.29397,0.25682 -0.48359,0.31903 -0.48997,0.16075 -0.97362,0.3259 -1.44821,0.52803 -1.73851,0.74047 -3.36442,1.71131 -4.79023,2.95972 -4.68099,4.09861 -6.76667,10.51099 -5.54501,16.58276 0.44383,2.20591 1.36624,4.3149 2.61147,6.18273 1.16687,1.75032 2.69788,3.30824 4.43745,4.49255 6.91173,4.70562 16.16131,3.88074 22.16851,-1.93252 1.26641,-1.22553 2.3116,-2.73264 3.13164,-4.28674 0.95217,-1.80452 1.55834,-3.82639 1.80996,-5.84853 0.70491,-5.66514 -1.50315,-11.58334 -5.88829,-15.2847 -1.42159,-1.19993 -3.00905,-2.19327 -4.73453,-2.89569 -0.4575,-0.18625 -0.9233,-0.34368 -1.3925,-0.49761 -0.18963,-0.0622 -0.42341,-0.0987 -0.4836,-0.31903 -0.12518,-0.45826 -0.0177,-1.0817 -0.0177,-1.55639 v -3.28631 -10.75016 -34.757 h -9.35765 m 22.67003,2.17231 v 3.45342 h 11.362863 c 1.33057,0 3.39609,0.20193 3.39609,-1.72671 0,-1.93297 -2.06084,-1.72671 -3.39609,-1.72671 H 97.931377 m 0,13.08958 v 4.23322 h 16.654393 c 1.71678,0 4.96016,0.45556 4.89445,-2.17231 -0.0649,-2.59449 -3.26966,-2.06091 -5.00585,-2.06091 H 97.931377 m 0,13.81367 v 3.50912 h 11.362863 c 1.33573,0 3.35756,0.16727 3.39471,-1.72671 0.0377,-1.92198 -2.00962,-1.78241 -3.33901,-1.78241 z"
       id="path3" /></g></svg>
