<?xml version="1.0" encoding="UTF-8" standalone="no"?>
<svg
   enable-background="new 0 0 580 580"
   height="580"
   viewBox="0 0 580 580"
   width="580"
   version="1.1"
   id="svg2"
   sodipodi:docname="icon proklim.svg"
   xml:space="preserve"
   inkscape:version="1.4.2 (f4327f4, 2025-05-13)"
   xmlns:inkscape="http://www.inkscape.org/namespaces/inkscape"
   xmlns:sodipodi="http://sodipodi.sourceforge.net/DTD/sodipodi-0.dtd"
   xmlns="http://www.w3.org/2000/svg"
   xmlns:svg="http://www.w3.org/2000/svg"><defs
     id="defs2"><inkscape:path-effect
       effect="bspline"
       id="path-effect10"
       is_visible="true"
       lpeversion="1.3"
       weight="33.333333"
       steps="2"
       helper_size="0"
       apply_no_weight="true"
       apply_with_weight="true"
       only_selected="false"
       uniform="false" /></defs><sodipodi:namedview
     id="namedview2"
     pagecolor="#ffffff"
     bordercolor="#000000"
     borderopacity="0.25"
     inkscape:showpageshadow="2"
     inkscape:pageopacity="0.0"
     inkscape:pagecheckerboard="0"
     inkscape:deskcolor="#d1d1d1"
     inkscape:zoom="0.34784483"
     inkscape:cx="-501.66047"
     inkscape:cy="102.057"
     inkscape:window-width="1920"
     inkscape:window-height="1046"
     inkscape:window-x="-11"
     inkscape:window-y="-11"
     inkscape:window-maximized="1"
     inkscape:current-layer="svg2" /><path
     style="fill:#185329;stroke:none;stroke-width:4.80703"
     d="m 245.69123,184.89003 c 50.2916,17.12476 99.53042,44.01039 138.97367,79.74996 20.54021,18.61148 33.80488,46.3634 58.11466,59.65397 L 409.13034,213.73221 h 4.80703 c 28.03076,59.25371 71.12403,111.99032 61.04863,182.66725 -6.8652,48.15848 -40.09709,86.33694 -46.62754,134.59691 26.44748,-8.77203 48.03029,-27.33971 66.4083,-48.08889 C 630.08424,330.13077 450.00156,174.30614 442.77956,16.643884 373.24146,21.310457 273.37593,124.45048 245.69123,184.89003"
     id="path2"
     sodipodi:nodetypes="cscccscscc" /><path
     style="fill:#44aa00"
     d="m 191.80527,230.97945 c -0.97406,5.75967 -2.49867,18.126 -2.62571,29.17957 -0.12704,11.05357 1.14345,20.79399 3.76921,28.24772 2.62577,7.45373 6.60664,12.62039 12.91695,17.57544 6.3103,4.95505 14.94962,9.69821 22.57277,11.81573 7.62315,2.11752 14.22969,1.60932 17.57538,1.18581 3.34569,-0.42351 3.43039,-0.7623 3.9386,-1.82108 0.50822,-1.05878 1.43991,-2.83747 1.86341,-6.1832 0.42351,-3.34574 0.33881,-8.25829 0,-12.40867 -0.33881,-4.15038 -0.9317,-7.53835 -2.15989,-11.01113 -1.22818,-3.47277 -3.09157,-7.03014 -5.97144,-10.88407 -2.87987,-3.85394 -6.77603,-8.0042 -11.13817,-11.0111 -4.36215,-3.00691 -9.19001,-4.87029 -11.34988,-5.7173 -2.15987,-0.847 -1.65167,-0.6776 1.94819,-0.21174 3.59985,0.46586 10.29109,1.22815 16.55902,4.31979 6.26793,3.09164 12.11217,8.51239 16.00844,13.89095 3.89626,5.37857 5.84434,10.71462 7.07251,17.02492 1.22817,6.31029 1.73636,13.59442 2.11752,16.8554 0.38116,3.26098 0.63526,2.49868 1.14347,1.05875 0.50821,-1.43994 1.2705,-3.55742 2.11752,-6.9455 0.84702,-3.38809 1.77871,-8.04655 2.24457,-13.34041 0.46585,-5.29387 0.46585,-11.22282 -1.69406,-17.23665 -2.15992,-6.01382 -6.47958,-12.11217 -12.32402,-17.23662 -5.84444,-5.12445 -13.21327,-9.27471 -19.9047,-12.28162 -6.69144,-3.0069 -12.70509,-4.87028 -17.53308,-6.64902 -4.82799,-1.77873 -8.47005,-3.47271 -11.68871,-5.08205 -3.21867,-1.60933 -6.01375,-3.13392 -8.21599,-4.31974 -2.20224,-1.18582 -3.81152,-2.03281 -4.82794,-2.87983 -1.01641,-0.84702 -1.43991,-1.69401 -2.41397,4.06565 z"
     id="path10"
     inkscape:path-effect="#path-effect10"
     inkscape:original-d="m 192.35583,224.37278 c -1.52462,12.36634 -3.04924,24.73267 -4.57385,37.09901 1.27054,9.7408 2.54102,19.48122 3.81154,29.22182 3.98102,5.16686 7.96189,10.33352 11.94283,15.50027 8.63967,4.74335 17.27899,9.48651 25.91849,14.22976 6.6068,-0.50821 13.21334,-1.01641 19.82002,-1.52461 0.0847,-0.33882 0.1694,-0.67761 0.2541,-1.01642 0.93173,-1.77875 1.86342,-3.55744 2.79513,-5.33616 -0.0847,-4.91275 -0.1694,-9.8253 -0.2541,-14.73796 -0.59292,-3.3881 -1.18582,-6.77607 -1.77872,-10.16411 -1.86346,-3.55751 -3.72684,-7.11488 -5.59027,-10.67232 -3.89632,-4.15043 -7.79248,-8.30069 -11.68872,-12.45104 -4.82805,-1.86345 -9.65591,-3.72684 -14.48386,-5.59026 0.50821,0.16941 1.01641,0.33881 1.52461,0.50821 6.69151,0.76232 13.38275,1.52461 20.07412,2.28692 5.84449,5.42097 11.68873,10.84172 17.5331,16.26258 1.94816,5.33627 3.89624,10.67232 5.84436,16.00848 0.50822,7.28443 1.01641,14.56856 1.52462,21.85284 0.25411,-0.76232 0.50821,-1.52462 0.76231,-2.28692 0.76232,-2.11757 1.52461,-4.23505 2.28692,-6.35257 0.93173,-4.65865 1.86342,-9.31711 2.79513,-13.97566 0,-5.92918 0,-11.85813 0,-17.7872 -4.31983,-6.09858 -8.63949,-12.19693 -12.95924,-18.2954 -7.36913,-4.15043 -14.73796,-8.30069 -22.10694,-12.45104 -6.01389,-1.86345 -12.02754,-3.72684 -18.0413,-5.59026 -3.64222,-1.69405 -7.28428,-3.38803 -10.92642,-5.08205 -2.79519,-1.52465 -5.59027,-3.04924 -8.3854,-4.57385 -1.60935,-0.84703 -3.21863,-1.69402 -4.82795,-2.54103 -0.42351,-0.84703 -0.84701,-1.69402 -1.27051,-2.54103 z"
     transform="matrix(4.8070324,0,0,4.8070324,-871.18133,-973.52068)" /></svg>
